<?xml version="1.0" standalone="no"?>
<!DOCTYPE svg PUBLIC "-//W3C//DTD SVG 20010904//EN"
 "http://www.w3.org/TR/2001/REC-SVG-20010904/DTD/svg10.dtd">
<svg version="1.0" xmlns="http://www.w3.org/2000/svg"
 width="100.000000pt" height="100.000000pt" viewBox="0 0 100.000000 100.000000"
 preserveAspectRatio="xMidYMid meet">
<metadata>
Created by potrace 1.10, written by Peter Selinger 2001-2011
</metadata>
<g transform="translate(0.000000,100.000000) scale(0.100000,-0.100000)"
fill="#000000" stroke="none">
<path d="M440 759 l2 -203 -196 -202 c-108 -111 -196 -205 -196 -208 0 -3 94
-6 209 -6 l209 0 93 100 93 101 103 -103 c57 -56 103 -98 103 -93 1 6 0 102 0
215 l-1 205 -92 93 -92 92 99 99 c64 64 93 100 84 103 -7 3 -105 6 -216 7
l-203 2 1 -202z m300 86 l-95 -95 97 -98 97 -97 3 -188 c2 -103 3 -187 2 -187
-1 0 -42 42 -92 93 l-91 92 -103 -102 -103 -103 -190 0 -190 0 193 193 192
192 0 198 0 197 187 0 188 0 -95 -95z"/>
<path d="M565 661 l-70 -75 78 63 c42 35 77 67 77 72 0 23 -22 8 -85 -60z"/>
<path d="M486 518 c87 -124 144 -182 144 -148 0 6 -36 48 -81 93 -45 45 -73
70 -63 55z"/>
</g>
</svg>
